<svg width="22" height="22" viewBox="0 0 22 22" fill="none" xmlns="http://www.w3.org/2000/svg">
<circle cx="11" cy="11" r="14" fill="#25D366"/>
<path d="M5.03409 10.3371H18.2917C18.4675 10.3371 18.6361 10.4069 18.7604 10.5312C18.8847 10.6556 18.9545 10.8242 18.9545 11C18.9545 11.1758 18.8847 11.3444 18.7604 11.4687C18.6361 11.593 18.4675 11.6629 18.2917 11.6629H5.03409C4.85829 11.6629 4.68968 11.593 4.56537 11.4687C4.44105 11.3444 4.37122 11.1758 4.37122 11C4.37122 10.8242 4.44105 10.6556 4.56537 10.5312C4.68968 10.4069 4.85829 10.3371 5.03409 10.3371Z" fill="#FAFAFA"/>
<path d="M5.30853 11L10.8064 16.4966C10.9309 16.621 11.0008 16.7899 11.0008 16.9659C11.0008 17.1419 10.9309 17.3107 10.8064 17.4352C10.682 17.5597 10.5132 17.6296 10.3371 17.6296C10.1611 17.6296 9.99228 17.5597 9.86781 17.4352L3.9019 11.4693C3.84017 11.4077 3.79119 11.3346 3.75777 11.254C3.72435 11.1735 3.70715 11.0872 3.70715 11C3.70715 10.9128 3.72435 10.8265 3.75777 10.7459C3.79119 10.6654 3.84017 10.5922 3.9019 10.5307L9.86781 4.56476C9.99228 4.44029 10.1611 4.37036 10.3371 4.37036C10.5132 4.37036 10.682 4.44029 10.8064 4.56476C10.9309 4.68923 11.0008 4.85805 11.0008 5.03408C11.0008 5.21011 10.9309 5.37892 10.8064 5.5034L5.30853 11Z" fill="#FAFAFA"/>
</svg>
