<svg width="44" height="44" viewBox="0 0 44 44" fill="none" xmlns="http://www.w3.org/2000/svg">
<path d="M44 38C44 41.3137 41.3137 44 38 44L6 44C2.68629 44 0 41.3137 0 38L0 6C0 2.68629 2.68629 0 6 0L38 0C41.3137 0 44 2.68629 44 6L44 38Z" fill="#003B3C"/>
<path d="M36.6667 20.1663C35.6541 20.1663 34.8333 20.9872 34.8333 21.9997C34.8333 23.0122 35.6541 23.833 36.6667 23.833C37.6792 23.833 38.5 23.0122 38.5 21.9997C38.5 20.9872 37.6792 20.1663 36.6667 20.1663Z" fill="white"/>
<path d="M7.22268 23.833L29.4427 23.833C30.3945 23.833 31.166 23.0614 31.166 22.1097V21.8897C31.166 20.9379 30.3945 20.1663 29.4427 20.1663L7.22268 20.1663C6.27091 20.1663 5.49935 20.9379 5.49935 21.8897V22.1097C5.49935 23.0614 6.27091 23.833 7.22268 23.833Z" fill="white"/>
<path d="M7.22333 14.667L36.7767 14.667C37.7284 14.667 38.5 13.8954 38.5 12.9437V12.7237C38.5 11.7719 37.7284 11.0003 36.7767 11.0003L7.22333 11.0003C6.27156 11.0003 5.5 11.7719 5.5 12.7237V12.9437C5.5 13.8954 6.27156 14.667 7.22333 14.667Z" fill="white"/>
<path d="M7.22333 33L36.7767 33C37.7284 33 38.5 32.2284 38.5 31.2767V31.0567C38.5 30.1049 37.7284 29.3333 36.7767 29.3333L7.22333 29.3333C6.27156 29.3333 5.5 30.1049 5.5 31.0567V31.2767C5.5 32.2284 6.27156 33 7.22333 33Z" fill="white"/>
</svg>
