<svg width="25" height="24" viewBox="0 0 25 24" fill="none" xmlns="http://www.w3.org/2000/svg">
<path d="M12.6195 13.5305H12.4495C10.1795 13.4605 8.47954 11.6905 8.47954 9.51047C8.47954 7.29047 10.2895 5.48047 12.5095 5.48047C14.7295 5.48047 16.5395 7.29047 16.5395 9.51047C16.5416 10.5549 16.1365 11.5591 15.4101 12.3097C14.6838 13.0603 13.6935 13.4982 12.6495 13.5305H12.6195ZM12.4995 6.97047C11.0995 6.97047 9.96954 8.11047 9.96954 9.50047C9.96653 10.1552 10.2185 10.7855 10.6721 11.2577C11.1256 11.7299 11.7452 12.0071 12.3995 12.0305C12.4758 12.0199 12.5532 12.0199 12.6295 12.0305C13.2773 11.9959 13.8872 11.7143 14.3337 11.2437C14.7801 10.7731 15.0292 10.1492 15.0295 9.50047C15.0295 8.11047 13.8995 6.97047 12.4995 6.97047ZM12.4995 22.7505C9.80954 22.7505 7.23954 21.7505 5.24954 19.9305C5.16346 19.8512 5.09697 19.7531 5.05532 19.6437C5.01367 19.5344 4.998 19.4169 5.00954 19.3005C5.13954 18.1105 5.87954 17.0005 7.10954 16.1805C10.0895 14.2005 14.9195 14.2005 17.8895 16.1805C19.1195 17.0105 19.8595 18.1105 19.9895 19.3005C20.0195 19.5405 19.9295 19.7705 19.7495 19.9305C17.7717 21.7459 15.1842 22.7524 12.4995 22.7505ZM6.57954 19.1005C8.23881 20.4907 10.3348 21.2519 12.4995 21.2505C14.6695 21.2505 16.7595 20.4905 18.4195 19.1005C18.2395 18.4905 17.7595 17.9005 17.0495 17.4205C14.5895 15.7805 10.4195 15.7805 7.93954 17.4205C7.22954 17.9005 6.75954 18.4905 6.57954 19.1005Z" fill="#86869B"/>
<path d="M12.5 22.75C6.57 22.75 1.75 17.93 1.75 12C1.75 6.07 6.57 1.25 12.5 1.25C18.43 1.25 23.25 6.07 23.25 12C23.25 17.93 18.43 22.75 12.5 22.75ZM12.5 2.75C7.4 2.75 3.25 6.9 3.25 12C3.25 17.1 7.4 21.25 12.5 21.25C17.6 21.25 21.75 17.1 21.75 12C21.75 6.9 17.6 2.75 12.5 2.75Z" fill="#86869B"/>
</svg>
