<svg width="25" height="24" viewBox="0 0 25 24" fill="none" xmlns="http://www.w3.org/2000/svg">
<path d="M22.8596 8.27L22.5696 5.5C22.1496 2.48 20.7796 1.25 17.8497 1.25H7.08965C4.14965 1.25 2.78965 2.48 2.35965 5.53L2.08965 8.28C1.98965 9.35 2.27965 10.39 2.90965 11.2C3.66965 12.19 4.83965 12.75 6.13965 12.75C7.39965 12.75 8.60965 12.12 9.36965 11.11C9.71668 11.6193 10.1837 12.0353 10.7296 12.3213C11.2755 12.6073 11.8834 12.7546 12.4997 12.75C13.7896 12.75 14.9197 12.15 15.6096 11.15C16.3797 12.14 17.5696 12.75 18.8096 12.75C20.1396 12.75 21.3396 12.16 22.0896 11.12C22.6896 10.32 22.9597 9.31 22.8596 8.27ZM11.8497 16.66C11.2357 16.7256 10.6679 17.0164 10.256 17.4764C9.84414 17.9363 9.6174 18.5326 9.61965 19.15V21.89C9.61965 22.16 9.83965 22.38 10.1096 22.38H14.8797C15.1497 22.38 15.3696 22.16 15.3696 21.89V19.5C15.3797 17.41 14.1497 16.42 11.8497 16.66Z" fill="#FF7A00"/>
<path d="M21.8709 14.3981V17.3781C21.8709 20.1381 19.6309 22.3781 16.8709 22.3781C16.7409 22.3781 16.6163 22.3265 16.5244 22.2346C16.4325 22.1427 16.3809 22.0181 16.3809 21.8881V19.4981C16.3809 18.2181 15.9909 17.2181 15.2309 16.5381C14.5609 15.9281 13.6509 15.6281 12.5209 15.6281C12.2709 15.6281 12.0209 15.6381 11.7509 15.6681C10.8903 15.7562 10.0932 16.1613 9.51471 16.8045C8.93621 17.4477 8.6176 18.283 8.62086 19.1481V21.8881C8.62086 22.1581 8.40086 22.3781 8.13086 22.3781C5.37086 22.3781 3.13086 20.1381 3.13086 17.3781V14.4181C3.13093 14.2576 3.16965 14.0994 3.24375 13.957C3.31785 13.8146 3.42515 13.6921 3.55658 13.5999C3.68801 13.5077 3.8397 13.4485 3.99884 13.4273C4.15798 13.4061 4.31988 13.4235 4.47086 13.4781C4.74086 13.5681 5.01086 13.6381 5.29086 13.6781C5.41086 13.6981 5.54086 13.7181 5.66086 13.7181C5.82086 13.7381 5.98086 13.7481 6.14086 13.7481C7.30086 13.7481 8.44086 13.3181 9.34086 12.5781C10.2009 13.3181 11.3209 13.7481 12.5009 13.7481C13.6909 13.7481 14.7909 13.3381 15.6509 12.5981C16.5509 13.3281 17.6709 13.7481 18.8109 13.7481C18.9909 13.7481 19.1709 13.7381 19.3409 13.7181C19.7537 13.6838 20.1604 13.5964 20.5509 13.4581C20.7007 13.4068 20.8606 13.3919 21.0174 13.4147C21.1741 13.4375 21.3232 13.4973 21.4522 13.5892C21.5812 13.6811 21.6865 13.8024 21.7593 13.9431C21.8321 14.0837 21.8703 14.2397 21.8709 14.3981Z" fill="#FF7A00"/>
</svg>
