<svg width="18" height="22" viewBox="0 0 18 22" fill="none" xmlns="http://www.w3.org/2000/svg">
<path d="M2.94977 7.49957C2.88977 7.49957 2.82977 7.48957 2.76977 7.47957C2.57778 7.43096 2.41257 7.30886 2.30977 7.13958L0.74977 4.57957C0.36977 3.95957 0.24977 3.21957 0.42977 2.49957C0.59977 1.78957 1.03977 1.17957 1.66977 0.799575C2.28977 0.419575 3.02977 0.299575 3.74977 0.479575C4.46977 0.649575 5.06977 1.08957 5.44977 1.71957L7.00977 4.27957C7.22977 4.62957 7.10977 5.08957 6.75977 5.30957L3.33977 7.38958C3.21977 7.45958 3.08977 7.49957 2.94977 7.49957ZM3.08977 1.89957C2.85977 1.89957 2.63977 1.95957 2.44977 2.07957C2.16954 2.25262 1.9685 2.52881 1.88994 2.84865C1.81138 3.16849 1.8616 3.5064 2.02977 3.78957L3.19977 5.70957L5.33977 4.40957L4.16977 2.48957C3.99977 2.20957 3.71977 2.00957 3.39977 1.92957C3.28977 1.90957 3.18977 1.89957 3.08977 1.89957ZM7.91977 21.6096C7.61977 21.6096 7.31977 21.5696 7.02977 21.4796C6.14977 21.2196 5.43977 20.6196 5.02977 19.7696L2.97977 15.5896C2.45223 14.5268 2.34346 13.3046 2.67504 12.1654C3.00661 11.0262 3.7543 10.0532 4.76977 9.43957L7.92977 7.51958C8.94085 6.89631 10.1496 6.67679 11.3153 6.90474C12.4809 7.13268 13.5179 7.79136 14.2198 8.74957L16.9898 12.4896C17.5498 13.2496 17.7598 14.1596 17.5898 15.0496C17.4198 15.9396 16.8798 16.7096 16.0698 17.1996L9.63977 21.1096C9.09977 21.4396 8.50977 21.6096 7.91977 21.6096ZM10.3998 8.31957C9.81977 8.31957 9.23977 8.47958 8.69977 8.79957L5.53977 10.7186C4.84396 11.138 4.33126 11.8037 4.10342 12.5836C3.87557 13.3635 3.94923 14.2005 4.30977 14.9286L6.35977 19.1086C6.58977 19.5686 6.96977 19.8986 7.43977 20.0386C7.90977 20.1786 8.40977 20.0986 8.83977 19.8386L15.2698 15.9286C15.7098 15.6586 15.9998 15.2486 16.0998 14.7686C16.1898 14.2886 16.0798 13.7986 15.7698 13.3886L12.9998 9.64857C12.7036 9.23589 12.3131 8.8999 11.8609 8.66857C11.4087 8.43723 10.9077 8.31724 10.3998 8.31857V8.31957Z" fill="#86869B"/>
</svg>
