<svg width="21" height="22" viewBox="0 0 21 22" fill="none" xmlns="http://www.w3.org/2000/svg">
<path d="M16.91 11.75C14.88 11.75 13.07 10.11 12.86 8.09L12.16 1.08C12.14 0.87 12.21 0.66 12.35 0.5C12.49 0.34 12.69 0.25 12.91 0.25H15.96C18.9 0.25 20.27 1.48 20.68 4.5L20.96 7.28C21.08 8.46 20.72 9.58 19.95 10.43C19.18 11.28 18.1 11.75 16.91 11.75ZM13.74 1.75L14.36 7.94C14.49 9.19 15.65 10.25 16.91 10.25C17.67 10.25 18.35 9.96 18.84 9.43C19.32 8.9 19.54 8.19 19.47 7.43L19.19 4.68C18.88 2.42 18.15 1.75 15.96 1.75H13.74ZM4.23902 11.75C3.04902 11.75 1.96902 11.28 1.19902 10.43C0.429021 9.58 0.0690205 8.46 0.18902 7.28L0.45902 4.53C0.87902 1.48 2.24902 0.25 5.18902 0.25H8.23902C8.44902 0.25 8.64902 0.34 8.79902 0.5C8.94902 0.66 9.00902 0.87 8.98902 1.08L8.28902 8.09C8.07902 10.11 6.26902 11.75 4.23902 11.75ZM5.18902 1.75C2.99902 1.75 2.26902 2.41 1.94902 4.7L1.67902 7.43C1.59902 8.19 1.82902 8.9 2.30902 9.43C2.78902 9.96 3.46902 10.25 4.23902 10.25C5.49902 10.25 6.66902 9.19 6.78902 7.94L7.40902 1.75H5.18902ZM13.1 21.75H8.10002C7.69002 21.75 7.35002 21.41 7.35002 21V18.5C7.35002 16.4 8.50002 15.25 10.6 15.25C12.7 15.25 13.85 16.4 13.85 18.5V21C13.85 21.41 13.51 21.75 13.1 21.75ZM8.85002 20.25H12.35V18.5C12.35 17.24 11.86 16.75 10.6 16.75C9.34002 16.75 8.85002 17.24 8.85002 18.5V20.25Z" fill="#86869B"/>
</svg>
